<svg xmlns="http://www.w3.org/2000/svg" style="isolation:isolate" width="512" height="512"><defs><clipPath id="a"><path d="M0 0h512v512H0z"/></clipPath></defs><g clip-path="url(#a)"><path d="M255.9 326.8q-16.2 0-29.4-6.2t-22.6-16.3q-9.4-10.1-14.6-23.1-5.2-13-5.2-26.8 0-14 5.4-27t15.1-22.9q9.7-9.9 23-15.8t29.1-5.9q16.2 0 29.4 6.2t22.6 16.4q9.4 10.2 14.5 23.2t5.1 26.6q0 14-5.4 26.9-5.4 12.9-15 22.8T285 320.8q-13.3 6-29.1 6zm-32.2-72q0 7.2 2 13.9t6 11.9q4 5.2 10.1 8.4t14.5 3.2q8.4 0 14.6-3.3 6.2-3.3 10.1-8.6 3.9-5.3 5.8-12.1t1.9-13.8q0-7.2-2-13.9t-6.1-11.8q-4.1-5.1-10.2-8.2-6.1-3.1-14.3-3.1-8.4 0-14.5 3.2t-10.1 8.5q-4 5.3-5.9 12-1.9 6.7-1.9 13.7zm115.2-51.2q0-9.8 6.6-16.3t17.2-6.5q10.6 0 17.2 6.5t6.6 16.3q0 11.4-6.6 18.1-6.6 6.7-17.2 6.7t-17.2-6.9q-6.6-6.9-6.6-17.9zm19.2-3.4q-1.8 1.8-1.8 4.4 0 2.6 1.8 4.4 2 2 4.6 2 2.8 0 4.4-2 1-.8 1.4-2.1.4-1.3.4-2.3 0-2.8-1.8-4.4-.8-1-2-1.4-1.2-.4-2.4-.4-2.8 0-4.6 1.8zm104 133.4h-49v-30h14v-96h-14v-30h49v156zm-362.8 0h-49v-156h49v30h-14v96h14v30z" fill-rule="evenodd"/></g></svg>